<?xml version="1.0" encoding="utf-8" ?>
<svg baseProfile="full" height="256px" version="1.1" width="256px" xmlns="http://www.w3.org/2000/svg" xmlns:ev="http://www.w3.org/2001/xml-events" xmlns:xlink="http://www.w3.org/1999/xlink"><defs /><polygon fill="red" points="121,0 119,2 117,2 114,5 113,5 113,6 112,7 111,7 110,8 110,10 109,11 107,11 107,15 105,17 104,17 104,21 103,22 103,23 101,25 101,122 103,124 103,125 104,126 104,131 105,132 106,132 107,133 107,135 113,141 114,141 117,144 119,144 120,145 121,145 123,147 139,147 140,146 141,146 143,144 148,144 149,143 150,143 152,141 164,141 166,143 166,144 168,144 169,145 170,145 171,146 171,147 170,148 169,147 167,147 166,146 157,146 156,147 155,147 154,148 153,148 152,149 147,149 146,150 145,150 144,151 143,151 142,152 125,152 124,151 123,151 122,150 121,150 120,149 117,149 115,147 114,147 113,146 112,146 102,136 102,134 101,133 101,132 99,130 99,127 98,126 98,123 97,122 97,120 96,119 96,105 95,104 95,91 94,91 93,90 31,90 30,91 29,91 27,93 21,93 20,94 20,95 19,96 16,96 13,99 12,99 12,100 10,102 9,102 9,103 5,107 5,110 2,113 2,123 1,124 1,126 2,127 2,136 5,139 5,142 8,145 8,146 9,147 10,147 11,148 11,149 12,150 13,150 15,152 15,153 17,153 20,156 24,156 26,158 27,158 28,159 100,159 101,160 101,231 104,234 104,237 105,238 106,238 107,239 107,241 108,241 110,243 110,244 111,244 113,246 113,247 115,247 116,248 116,249 117,250 119,250 120,251 121,251 123,253 129,253 130,254 131,254 132,255 140,255 141,254 142,254 143,253 149,253 152,250 155,250 158,247 159,247 160,246 160,245 161,244 163,244 163,242 166,239 166,238 167,237 167,236 169,234 169,232 170,231 170,227 171,226 171,224 172,223 172,151 170,149 170,148 171,147 173,147 176,150 177,150 180,153 182,153 185,156 187,156 190,159 195,159 197,161 199,161 200,162 226,162 227,161 228,161 229,160 230,160 231,159 234,159 235,158 236,158 238,156 239,156 242,153 243,153 243,152 247,148 247,147 249,145 249,144 250,143 250,141 251,140 251,139 252,138 252,137 253,136 253,132 254,131 254,130 255,129 255,108 251,108 250,109 247,109 246,108 243,108 242,107 241,107 239,105 238,105 235,102 233,102 230,99 228,99 226,97 225,97 224,96 220,96 218,94 217,94 216,93 206,93 205,92 199,92 198,93 189,93 188,94 187,94 185,96 182,96 181,97 180,97 179,98 178,98 177,99 176,99 175,100 174,100 172,102 170,102 169,101 171,99 172,99 172,98 173,97 175,97 176,96 176,95 177,94 181,94 182,93 182,92 183,91 191,91 192,90 196,90 197,89 198,89 199,88 209,88 211,86 212,86 213,85 214,85 217,82 218,82 219,81 219,77 218,76 215,76 214,75 212,75 210,73 202,73 200,71 203,68 203,66 204,65 204,63 205,62 205,61 206,60 206,56 207,55 207,51 205,49 199,49 198,50 195,50 194,51 192,51 191,52 184,52 183,53 182,53 181,54 180,54 179,55 176,55 173,58 172,58 169,61 169,62 168,63 168,64 167,65 165,63 166,62 166,36 165,35 165,33 164,32 164,29 163,28 163,22 160,19 160,16 159,15 159,14 157,12 157,11 151,5 150,5 147,2 145,2 144,1 144,0" /></svg>